<mxfile host="app.diagrams.net" modified="2020-11-20T15:30:53.648Z" agent="5.0 (Windows NT 10.0; Win64; x64) AppleWebKit/537.36 (KHTML, like Gecko) Chrome/86.0.4238.2 Safari/537.36" etag="vfQRW-uay9tLaxIpbEvW" version="13.10.0" type="github">
  <diagram id="bWlP_pvVGNrw0wlMS_zj" name="Page-1">
    <mxGraphModel dx="2249" dy="762" grid="1" gridSize="10" guides="1" tooltips="1" connect="1" arrows="1" fold="1" page="1" pageScale="1" pageWidth="827" pageHeight="1169" math="0" shadow="0">
      <root>
        <mxCell id="0" />
        <mxCell id="1" parent="0" />
        <mxCell id="pJ0Z15_dWUfpce8R7Os0-11" value="&lt;font style=&quot;vertical-align: inherit&quot;&gt;&lt;font style=&quot;vertical-align: inherit&quot;&gt;小米&lt;br&gt;xmpush&lt;br&gt;&lt;/font&gt;&lt;/font&gt;" style="rounded=1;whiteSpace=wrap;html=1;" vertex="1" parent="1">
          <mxGeometry x="490" y="370" width="120" height="60" as="geometry" />
        </mxCell>
        <mxCell id="pJ0Z15_dWUfpce8R7Os0-15" value="&lt;font style=&quot;vertical-align: inherit&quot;&gt;&lt;font style=&quot;vertical-align: inherit&quot;&gt;OPPO&lt;br&gt;推送服务器&lt;br&gt;&lt;/font&gt;&lt;/font&gt;" style="rounded=1;whiteSpace=wrap;html=1;" vertex="1" parent="1">
          <mxGeometry x="490" y="820" width="120" height="60" as="geometry" />
        </mxCell>
        <mxCell id="pJ0Z15_dWUfpce8R7Os0-16" value="&lt;font style=&quot;vertical-align: inherit&quot;&gt;&lt;font style=&quot;vertical-align: inherit&quot;&gt;华为&lt;br&gt;HMS push&lt;br&gt;&lt;/font&gt;&lt;/font&gt;" style="rounded=1;whiteSpace=wrap;html=1;" vertex="1" parent="1">
          <mxGeometry x="470" y="160" width="120" height="60" as="geometry" />
        </mxCell>
        <mxCell id="pJ0Z15_dWUfpce8R7Os0-17" value="" style="group" vertex="1" connectable="0" parent="1">
          <mxGeometry x="740" y="130" width="70" height="120" as="geometry" />
        </mxCell>
        <mxCell id="pJ0Z15_dWUfpce8R7Os0-2" value="" style="verticalLabelPosition=bottom;verticalAlign=top;html=1;shadow=0;dashed=0;strokeWidth=1;shape=mxgraph.android.phone2;strokeColor=#c0c0c0;" vertex="1" parent="pJ0Z15_dWUfpce8R7Os0-17">
          <mxGeometry width="70" height="120" as="geometry" />
        </mxCell>
        <mxCell id="pJ0Z15_dWUfpce8R7Os0-3" value="&lt;font style=&quot;vertical-align: inherit&quot;&gt;&lt;font style=&quot;vertical-align: inherit&quot;&gt;&lt;br&gt;华为&lt;/font&gt;&lt;/font&gt;" style="text;html=1;align=center;verticalAlign=middle;resizable=0;points=[];autosize=1;" vertex="1" parent="pJ0Z15_dWUfpce8R7Os0-17">
          <mxGeometry x="15" y="13.846153846153847" width="40" height="30" as="geometry" />
        </mxCell>
        <mxCell id="pJ0Z15_dWUfpce8R7Os0-45" value="用户ID_1" style="text;html=1;align=center;verticalAlign=middle;resizable=0;points=[];autosize=1;" vertex="1" parent="pJ0Z15_dWUfpce8R7Os0-17">
          <mxGeometry x="5" y="80" width="60" height="20" as="geometry" />
        </mxCell>
        <mxCell id="pJ0Z15_dWUfpce8R7Os0-21" value="" style="group" vertex="1" connectable="0" parent="1">
          <mxGeometry x="740" y="330" width="70" height="120" as="geometry" />
        </mxCell>
        <mxCell id="pJ0Z15_dWUfpce8R7Os0-22" value="" style="verticalLabelPosition=bottom;verticalAlign=top;html=1;shadow=0;dashed=0;strokeWidth=1;shape=mxgraph.android.phone2;strokeColor=#c0c0c0;" vertex="1" parent="pJ0Z15_dWUfpce8R7Os0-21">
          <mxGeometry width="70" height="120" as="geometry" />
        </mxCell>
        <mxCell id="pJ0Z15_dWUfpce8R7Os0-23" value="&lt;font style=&quot;vertical-align: inherit&quot;&gt;&lt;font style=&quot;vertical-align: inherit&quot;&gt;&lt;br&gt;小米&lt;br&gt;&lt;/font&gt;&lt;/font&gt;" style="text;html=1;align=center;verticalAlign=middle;resizable=0;points=[];autosize=1;" vertex="1" parent="pJ0Z15_dWUfpce8R7Os0-21">
          <mxGeometry x="15" y="13.846153846153847" width="40" height="30" as="geometry" />
        </mxCell>
        <mxCell id="pJ0Z15_dWUfpce8R7Os0-46" value="用户ID_2" style="text;html=1;align=center;verticalAlign=middle;resizable=0;points=[];autosize=1;" vertex="1" parent="pJ0Z15_dWUfpce8R7Os0-21">
          <mxGeometry x="5" y="80" width="60" height="20" as="geometry" />
        </mxCell>
        <mxCell id="pJ0Z15_dWUfpce8R7Os0-25" value="" style="group" vertex="1" connectable="0" parent="1">
          <mxGeometry x="740" y="570" width="70" height="120" as="geometry" />
        </mxCell>
        <mxCell id="pJ0Z15_dWUfpce8R7Os0-26" value="" style="verticalLabelPosition=bottom;verticalAlign=top;html=1;shadow=0;dashed=0;strokeWidth=1;shape=mxgraph.android.phone2;strokeColor=#c0c0c0;" vertex="1" parent="pJ0Z15_dWUfpce8R7Os0-25">
          <mxGeometry width="70" height="120" as="geometry" />
        </mxCell>
        <mxCell id="pJ0Z15_dWUfpce8R7Os0-27" value="&lt;font style=&quot;vertical-align: inherit&quot;&gt;&lt;font style=&quot;vertical-align: inherit&quot;&gt;&lt;br&gt;vivo&lt;br&gt;&lt;/font&gt;&lt;/font&gt;" style="text;html=1;align=center;verticalAlign=middle;resizable=0;points=[];autosize=1;" vertex="1" parent="pJ0Z15_dWUfpce8R7Os0-25">
          <mxGeometry x="15" y="13.846153846153847" width="40" height="30" as="geometry" />
        </mxCell>
        <mxCell id="pJ0Z15_dWUfpce8R7Os0-47" value="用户ID_3" style="text;html=1;align=center;verticalAlign=middle;resizable=0;points=[];autosize=1;" vertex="1" parent="pJ0Z15_dWUfpce8R7Os0-25">
          <mxGeometry y="85" width="60" height="20" as="geometry" />
        </mxCell>
        <mxCell id="pJ0Z15_dWUfpce8R7Os0-28" value="" style="group" vertex="1" connectable="0" parent="1">
          <mxGeometry x="740" y="790" width="70" height="120" as="geometry" />
        </mxCell>
        <mxCell id="pJ0Z15_dWUfpce8R7Os0-29" value="" style="verticalLabelPosition=bottom;verticalAlign=top;html=1;shadow=0;dashed=0;strokeWidth=1;shape=mxgraph.android.phone2;strokeColor=#c0c0c0;" vertex="1" parent="pJ0Z15_dWUfpce8R7Os0-28">
          <mxGeometry width="70" height="120" as="geometry" />
        </mxCell>
        <mxCell id="pJ0Z15_dWUfpce8R7Os0-30" value="&lt;font style=&quot;vertical-align: inherit&quot;&gt;&lt;font style=&quot;vertical-align: inherit&quot;&gt;&lt;br&gt;OPPO&lt;br&gt;&lt;/font&gt;&lt;/font&gt;" style="text;html=1;align=center;verticalAlign=middle;resizable=0;points=[];autosize=1;" vertex="1" parent="pJ0Z15_dWUfpce8R7Os0-28">
          <mxGeometry x="10" y="13.846153846153847" width="50" height="30" as="geometry" />
        </mxCell>
        <mxCell id="pJ0Z15_dWUfpce8R7Os0-48" value="用户ID_4" style="text;html=1;align=center;verticalAlign=middle;resizable=0;points=[];autosize=1;" vertex="1" parent="pJ0Z15_dWUfpce8R7Os0-28">
          <mxGeometry x="5" y="80" width="60" height="20" as="geometry" />
        </mxCell>
        <mxCell id="pJ0Z15_dWUfpce8R7Os0-31" value="" style="endArrow=classic;startArrow=classic;html=1;exitX=1;exitY=0.5;exitDx=0;exitDy=0;entryX=-0.029;entryY=0.508;entryDx=0;entryDy=0;entryPerimeter=0;" edge="1" parent="1" source="pJ0Z15_dWUfpce8R7Os0-16" target="pJ0Z15_dWUfpce8R7Os0-2">
          <mxGeometry width="50" height="50" relative="1" as="geometry">
            <mxPoint x="390" y="440" as="sourcePoint" />
            <mxPoint x="741" y="174" as="targetPoint" />
          </mxGeometry>
        </mxCell>
        <mxCell id="pJ0Z15_dWUfpce8R7Os0-77" value="系统长链接" style="edgeLabel;html=1;align=center;verticalAlign=middle;resizable=0;points=[];" vertex="1" connectable="0" parent="pJ0Z15_dWUfpce8R7Os0-31">
          <mxGeometry x="-0.2295" y="-1" relative="1" as="geometry">
            <mxPoint x="13.01" y="-1.37" as="offset" />
          </mxGeometry>
        </mxCell>
        <mxCell id="pJ0Z15_dWUfpce8R7Os0-33" value="" style="endArrow=classic;startArrow=classic;html=1;exitX=1;exitY=0.5;exitDx=0;exitDy=0;" edge="1" parent="1" source="pJ0Z15_dWUfpce8R7Os0-11">
          <mxGeometry width="50" height="50" relative="1" as="geometry">
            <mxPoint x="390" y="490" as="sourcePoint" />
            <mxPoint x="737" y="400" as="targetPoint" />
          </mxGeometry>
        </mxCell>
        <mxCell id="pJ0Z15_dWUfpce8R7Os0-78" value="系统长链接" style="edgeLabel;html=1;align=center;verticalAlign=middle;resizable=0;points=[];" vertex="1" connectable="0" parent="pJ0Z15_dWUfpce8R7Os0-33">
          <mxGeometry x="-0.2126" relative="1" as="geometry">
            <mxPoint as="offset" />
          </mxGeometry>
        </mxCell>
        <mxCell id="pJ0Z15_dWUfpce8R7Os0-34" value="" style="endArrow=classic;startArrow=classic;html=1;entryX=-0.043;entryY=0.508;entryDx=0;entryDy=0;entryPerimeter=0;exitX=1;exitY=0.5;exitDx=0;exitDy=0;" edge="1" parent="1" source="pJ0Z15_dWUfpce8R7Os0-15" target="pJ0Z15_dWUfpce8R7Os0-29">
          <mxGeometry width="50" height="50" relative="1" as="geometry">
            <mxPoint x="400" y="500" as="sourcePoint" />
            <mxPoint x="450" y="450" as="targetPoint" />
          </mxGeometry>
        </mxCell>
        <mxCell id="pJ0Z15_dWUfpce8R7Os0-80" value="系统长链接" style="edgeLabel;html=1;align=center;verticalAlign=middle;resizable=0;points=[];" vertex="1" connectable="0" parent="pJ0Z15_dWUfpce8R7Os0-34">
          <mxGeometry x="-0.1966" y="-2" relative="1" as="geometry">
            <mxPoint x="9.02" y="-2.39" as="offset" />
          </mxGeometry>
        </mxCell>
        <mxCell id="pJ0Z15_dWUfpce8R7Os0-35" value="" style="endArrow=classic;startArrow=classic;html=1;entryX=0.029;entryY=0.5;entryDx=0;entryDy=0;entryPerimeter=0;exitX=1;exitY=0.5;exitDx=0;exitDy=0;" edge="1" parent="1" source="pJ0Z15_dWUfpce8R7Os0-12" target="pJ0Z15_dWUfpce8R7Os0-26">
          <mxGeometry width="50" height="50" relative="1" as="geometry">
            <mxPoint x="410" y="510" as="sourcePoint" />
            <mxPoint x="460" y="460" as="targetPoint" />
          </mxGeometry>
        </mxCell>
        <mxCell id="pJ0Z15_dWUfpce8R7Os0-79" value="系统长链接" style="edgeLabel;html=1;align=center;verticalAlign=middle;resizable=0;points=[];" vertex="1" connectable="0" parent="pJ0Z15_dWUfpce8R7Os0-35">
          <mxGeometry x="-0.2426" y="-1" relative="1" as="geometry">
            <mxPoint x="10" y="-1" as="offset" />
          </mxGeometry>
        </mxCell>
        <mxCell id="pJ0Z15_dWUfpce8R7Os0-37" value="" style="endArrow=none;dashed=1;html=1;dashPattern=1 3;strokeWidth=2;exitX=1;exitY=0.5;exitDx=0;exitDy=0;entryX=0;entryY=0.875;entryDx=0;entryDy=0;entryPerimeter=0;" edge="1" parent="1" source="pJ0Z15_dWUfpce8R7Os0-36" target="pJ0Z15_dWUfpce8R7Os0-2">
          <mxGeometry width="50" height="50" relative="1" as="geometry">
            <mxPoint x="390" y="550" as="sourcePoint" />
            <mxPoint x="737" y="200" as="targetPoint" />
          </mxGeometry>
        </mxCell>
        <mxCell id="pJ0Z15_dWUfpce8R7Os0-41" value="app内长链接" style="edgeLabel;html=1;align=center;verticalAlign=middle;resizable=0;points=[];" vertex="1" connectable="0" parent="pJ0Z15_dWUfpce8R7Os0-37">
          <mxGeometry x="-0.0356" relative="1" as="geometry">
            <mxPoint x="-108" y="72.54" as="offset" />
          </mxGeometry>
        </mxCell>
        <mxCell id="pJ0Z15_dWUfpce8R7Os0-38" value="" style="endArrow=none;dashed=1;html=1;dashPattern=1 3;strokeWidth=2;exitX=1;exitY=0.5;exitDx=0;exitDy=0;" edge="1" parent="1" source="pJ0Z15_dWUfpce8R7Os0-36">
          <mxGeometry width="50" height="50" relative="1" as="geometry">
            <mxPoint x="150" y="590" as="sourcePoint" />
            <mxPoint x="738" y="430" as="targetPoint" />
          </mxGeometry>
        </mxCell>
        <mxCell id="pJ0Z15_dWUfpce8R7Os0-85" value="app内长链接" style="edgeLabel;html=1;align=center;verticalAlign=middle;resizable=0;points=[];" vertex="1" connectable="0" parent="pJ0Z15_dWUfpce8R7Os0-38">
          <mxGeometry x="-0.298" y="1" relative="1" as="geometry">
            <mxPoint x="-15.93" as="offset" />
          </mxGeometry>
        </mxCell>
        <mxCell id="pJ0Z15_dWUfpce8R7Os0-40" value="" style="endArrow=none;dashed=1;html=1;dashPattern=1 3;strokeWidth=2;exitX=1;exitY=0.5;exitDx=0;exitDy=0;entryX=0;entryY=0.867;entryDx=0;entryDy=0;entryPerimeter=0;" edge="1" parent="1" source="pJ0Z15_dWUfpce8R7Os0-36" target="pJ0Z15_dWUfpce8R7Os0-29">
          <mxGeometry width="50" height="50" relative="1" as="geometry">
            <mxPoint x="170" y="610" as="sourcePoint" />
            <mxPoint x="728" y="860" as="targetPoint" />
          </mxGeometry>
        </mxCell>
        <mxCell id="pJ0Z15_dWUfpce8R7Os0-44" value="app内长链接" style="edgeLabel;html=1;align=center;verticalAlign=middle;resizable=0;points=[];" vertex="1" connectable="0" parent="pJ0Z15_dWUfpce8R7Os0-40">
          <mxGeometry x="-0.1989" relative="1" as="geometry">
            <mxPoint x="-92.04" y="-93.66" as="offset" />
          </mxGeometry>
        </mxCell>
        <mxCell id="pJ0Z15_dWUfpce8R7Os0-54" value="app内长链接判断" style="rhombus;whiteSpace=wrap;html=1;" vertex="1" parent="1">
          <mxGeometry x="-60" y="460" width="150" height="120" as="geometry" />
        </mxCell>
        <mxCell id="pJ0Z15_dWUfpce8R7Os0-58" value="" style="endArrow=classic;html=1;exitX=0;exitY=0.5;exitDx=0;exitDy=0;entryX=1;entryY=0.5;entryDx=0;entryDy=0;" edge="1" parent="1" source="pJ0Z15_dWUfpce8R7Os0-54" target="pJ0Z15_dWUfpce8R7Os0-60">
          <mxGeometry width="50" height="50" relative="1" as="geometry">
            <mxPoint x="350" y="540" as="sourcePoint" />
            <mxPoint x="-150" y="585" as="targetPoint" />
          </mxGeometry>
        </mxCell>
        <mxCell id="pJ0Z15_dWUfpce8R7Os0-59" value="app进程不在" style="edgeLabel;html=1;align=center;verticalAlign=middle;resizable=0;points=[];" vertex="1" connectable="0" parent="pJ0Z15_dWUfpce8R7Os0-58">
          <mxGeometry x="-0.4" y="-1" relative="1" as="geometry">
            <mxPoint x="-24" y="1" as="offset" />
          </mxGeometry>
        </mxCell>
        <mxCell id="pJ0Z15_dWUfpce8R7Os0-60" value="用户登录&lt;br&gt;设备系统判断" style="rhombus;whiteSpace=wrap;html=1;" vertex="1" parent="1">
          <mxGeometry x="-305" y="460" width="125" height="110" as="geometry" />
        </mxCell>
        <mxCell id="pJ0Z15_dWUfpce8R7Os0-62" value="" style="endArrow=classic;html=1;exitX=0.5;exitY=0;exitDx=0;exitDy=0;entryX=0;entryY=0.5;entryDx=0;entryDy=0;" edge="1" parent="1" source="pJ0Z15_dWUfpce8R7Os0-60" target="pJ0Z15_dWUfpce8R7Os0-16">
          <mxGeometry width="50" height="50" relative="1" as="geometry">
            <mxPoint x="350" y="500" as="sourcePoint" />
            <mxPoint x="400" y="450" as="targetPoint" />
            <Array as="points">
              <mxPoint x="-242" y="190" />
            </Array>
          </mxGeometry>
        </mxCell>
        <mxCell id="pJ0Z15_dWUfpce8R7Os0-64" value="华为设备--发送指令（设备号+app包名+消息模板）" style="edgeLabel;html=1;align=center;verticalAlign=middle;resizable=0;points=[];" vertex="1" connectable="0" parent="pJ0Z15_dWUfpce8R7Os0-62">
          <mxGeometry x="-0.1158" relative="1" as="geometry">
            <mxPoint x="57" as="offset" />
          </mxGeometry>
        </mxCell>
        <mxCell id="pJ0Z15_dWUfpce8R7Os0-65" value="" style="endArrow=classic;html=1;exitX=0.5;exitY=0;exitDx=0;exitDy=0;entryX=0.5;entryY=0;entryDx=0;entryDy=0;" edge="1" parent="1" source="pJ0Z15_dWUfpce8R7Os0-60" target="pJ0Z15_dWUfpce8R7Os0-11">
          <mxGeometry width="50" height="50" relative="1" as="geometry">
            <mxPoint x="350" y="500" as="sourcePoint" />
            <mxPoint x="400" y="450" as="targetPoint" />
            <Array as="points">
              <mxPoint x="-242" y="290" />
              <mxPoint x="550" y="290" />
            </Array>
          </mxGeometry>
        </mxCell>
        <mxCell id="pJ0Z15_dWUfpce8R7Os0-66" value="小米设备--发送指令（设备号+app包名+消息模板）" style="edgeLabel;html=1;align=center;verticalAlign=middle;resizable=0;points=[];" vertex="1" connectable="0" parent="pJ0Z15_dWUfpce8R7Os0-65">
          <mxGeometry x="-0.3159" y="-1" relative="1" as="geometry">
            <mxPoint x="42" y="1.16" as="offset" />
          </mxGeometry>
        </mxCell>
        <mxCell id="pJ0Z15_dWUfpce8R7Os0-68" value="" style="endArrow=classic;html=1;exitX=0.5;exitY=1;exitDx=0;exitDy=0;entryX=0.5;entryY=1;entryDx=0;entryDy=0;" edge="1" parent="1" source="pJ0Z15_dWUfpce8R7Os0-60" target="pJ0Z15_dWUfpce8R7Os0-12">
          <mxGeometry width="50" height="50" relative="1" as="geometry">
            <mxPoint x="350" y="500" as="sourcePoint" />
            <mxPoint x="220" y="430" as="targetPoint" />
            <Array as="points">
              <mxPoint x="-240" y="760" />
              <mxPoint x="550" y="760" />
            </Array>
          </mxGeometry>
        </mxCell>
        <mxCell id="pJ0Z15_dWUfpce8R7Os0-69" value="vivo设备--发送指令（设备号+app包名+消息模板）" style="edgeLabel;html=1;align=center;verticalAlign=middle;resizable=0;points=[];" vertex="1" connectable="0" parent="pJ0Z15_dWUfpce8R7Os0-68">
          <mxGeometry x="-0.1312" relative="1" as="geometry">
            <mxPoint x="-118.97999999999999" as="offset" />
          </mxGeometry>
        </mxCell>
        <mxCell id="pJ0Z15_dWUfpce8R7Os0-36" value="&lt;font style=&quot;vertical-align: inherit&quot;&gt;&lt;font style=&quot;vertical-align: inherit&quot;&gt;极光服务器&lt;br&gt;&lt;span style=&quot;text-align: left&quot;&gt;用户ID&lt;/span&gt;&lt;br style=&quot;text-align: left&quot;&gt;&lt;span style=&quot;text-align: left&quot;&gt;手机系统&lt;/span&gt;&lt;br style=&quot;text-align: left&quot;&gt;&lt;span style=&quot;text-align: left&quot;&gt;设备号&lt;/span&gt;&lt;br style=&quot;text-align: left&quot;&gt;&lt;span style=&quot;text-align: left&quot;&gt;应用包名&lt;br&gt;&lt;/span&gt;退出登录清除绑定数据&lt;br&gt;&lt;/font&gt;&lt;/font&gt;" style="rounded=1;whiteSpace=wrap;html=1;" vertex="1" parent="1">
          <mxGeometry x="210" y="460" width="140" height="100" as="geometry" />
        </mxCell>
        <mxCell id="pJ0Z15_dWUfpce8R7Os0-73" value="" style="endArrow=classic;html=1;exitX=0.5;exitY=1;exitDx=0;exitDy=0;entryX=0;entryY=0.5;entryDx=0;entryDy=0;" edge="1" parent="1" source="pJ0Z15_dWUfpce8R7Os0-60" target="pJ0Z15_dWUfpce8R7Os0-15">
          <mxGeometry width="50" height="50" relative="1" as="geometry">
            <mxPoint x="-80" y="650" as="sourcePoint" />
            <mxPoint x="170" y="900" as="targetPoint" />
            <Array as="points">
              <mxPoint x="-242" y="840" />
            </Array>
          </mxGeometry>
        </mxCell>
        <mxCell id="pJ0Z15_dWUfpce8R7Os0-74" value="OPPO设备--发送指令（设备号+app包名+消息模板）" style="edgeLabel;html=1;align=center;verticalAlign=middle;resizable=0;points=[];" vertex="1" connectable="0" parent="pJ0Z15_dWUfpce8R7Os0-73">
          <mxGeometry x="-0.2835" relative="1" as="geometry">
            <mxPoint x="73.00999999999999" as="offset" />
          </mxGeometry>
        </mxCell>
        <mxCell id="pJ0Z15_dWUfpce8R7Os0-75" value="" style="endArrow=classic;html=1;entryX=0.5;entryY=0;entryDx=0;entryDy=0;fillColor=#009900;strokeColor=#00EB00;" edge="1" parent="1" target="pJ0Z15_dWUfpce8R7Os0-36">
          <mxGeometry width="50" height="50" relative="1" as="geometry">
            <mxPoint x="15" y="460" as="sourcePoint" />
            <mxPoint x="310" y="450" as="targetPoint" />
            <Array as="points">
              <mxPoint x="15" y="390" />
              <mxPoint x="280" y="390" />
            </Array>
          </mxGeometry>
        </mxCell>
        <mxCell id="pJ0Z15_dWUfpce8R7Os0-76" value="app进程在&lt;br&gt;通过app内长链接发送消息" style="edgeLabel;html=1;align=center;verticalAlign=middle;resizable=0;points=[];" vertex="1" connectable="0" parent="pJ0Z15_dWUfpce8R7Os0-75">
          <mxGeometry x="-0.2" y="-1" relative="1" as="geometry">
            <mxPoint x="43" y="-1" as="offset" />
          </mxGeometry>
        </mxCell>
        <mxCell id="pJ0Z15_dWUfpce8R7Os0-12" value="&lt;font style=&quot;vertical-align: inherit&quot;&gt;&lt;font style=&quot;vertical-align: inherit&quot;&gt;vivo&lt;br&gt;推送服务器&lt;br&gt;&lt;/font&gt;&lt;/font&gt;" style="rounded=1;whiteSpace=wrap;html=1;" vertex="1" parent="1">
          <mxGeometry x="490" y="600" width="120" height="60" as="geometry" />
        </mxCell>
        <mxCell id="pJ0Z15_dWUfpce8R7Os0-84" value="" style="endArrow=none;dashed=1;html=1;dashPattern=1 3;strokeWidth=2;fillColor=#009900;entryX=1;entryY=0.5;entryDx=0;entryDy=0;exitX=-0.029;exitY=0.133;exitDx=0;exitDy=0;exitPerimeter=0;" edge="1" parent="1" source="pJ0Z15_dWUfpce8R7Os0-26" target="pJ0Z15_dWUfpce8R7Os0-36">
          <mxGeometry width="50" height="50" relative="1" as="geometry">
            <mxPoint x="280" y="610" as="sourcePoint" />
            <mxPoint x="330" y="560" as="targetPoint" />
          </mxGeometry>
        </mxCell>
        <mxCell id="pJ0Z15_dWUfpce8R7Os0-86" value="app内长链接" style="edgeLabel;html=1;align=center;verticalAlign=middle;resizable=0;points=[];" vertex="1" connectable="0" parent="pJ0Z15_dWUfpce8R7Os0-84">
          <mxGeometry x="0.3104" y="-1" relative="1" as="geometry">
            <mxPoint x="-13.99" as="offset" />
          </mxGeometry>
        </mxCell>
        <mxCell id="pJ0Z15_dWUfpce8R7Os0-87" value="厂商通道推送原理&lt;br&gt;根据设备号定位对应手机&lt;br&gt;根据应用包名定位应用" style="text;html=1;align=left;verticalAlign=middle;resizable=0;points=[];autosize=1;" vertex="1" parent="1">
          <mxGeometry x="490" y="80" width="150" height="50" as="geometry" />
        </mxCell>
        <mxCell id="pJ0Z15_dWUfpce8R7Os0-93" value="" style="endArrow=classic;html=1;strokeColor=#000000;fillColor=#009900;exitX=0.5;exitY=1;exitDx=0;exitDy=0;" edge="1" parent="1" source="pJ0Z15_dWUfpce8R7Os0-36" target="pJ0Z15_dWUfpce8R7Os0-94">
          <mxGeometry width="50" height="50" relative="1" as="geometry">
            <mxPoint x="280" y="500" as="sourcePoint" />
            <mxPoint x="280" y="630" as="targetPoint" />
          </mxGeometry>
        </mxCell>
        <mxCell id="pJ0Z15_dWUfpce8R7Os0-95" value="业务消息推送" style="edgeLabel;html=1;align=center;verticalAlign=middle;resizable=0;points=[];" vertex="1" connectable="0" parent="pJ0Z15_dWUfpce8R7Os0-93">
          <mxGeometry x="-0.425" y="1" relative="1" as="geometry">
            <mxPoint x="-1" y="15.85" as="offset" />
          </mxGeometry>
        </mxCell>
        <mxCell id="pJ0Z15_dWUfpce8R7Os0-94" value="用户状态" style="rhombus;whiteSpace=wrap;html=1;" vertex="1" parent="1">
          <mxGeometry x="220" y="630" width="120" height="60" as="geometry" />
        </mxCell>
        <mxCell id="pJ0Z15_dWUfpce8R7Os0-96" value="" style="endArrow=classic;html=1;strokeColor=#000000;fillColor=#009900;exitX=0;exitY=0.5;exitDx=0;exitDy=0;entryX=0;entryY=0.5;entryDx=0;entryDy=0;" edge="1" parent="1" source="pJ0Z15_dWUfpce8R7Os0-94" target="pJ0Z15_dWUfpce8R7Os0-36">
          <mxGeometry width="50" height="50" relative="1" as="geometry">
            <mxPoint x="130" y="630" as="sourcePoint" />
            <mxPoint x="180" y="580" as="targetPoint" />
            <Array as="points">
              <mxPoint x="150" y="660" />
              <mxPoint x="150" y="510" />
            </Array>
          </mxGeometry>
        </mxCell>
        <mxCell id="pJ0Z15_dWUfpce8R7Os0-97" value="退出登录&lt;br&gt;保留离线消息" style="edgeLabel;html=1;align=center;verticalAlign=middle;resizable=0;points=[];" vertex="1" connectable="0" parent="pJ0Z15_dWUfpce8R7Os0-96">
          <mxGeometry x="0.1034" relative="1" as="geometry">
            <mxPoint as="offset" />
          </mxGeometry>
        </mxCell>
        <mxCell id="pJ0Z15_dWUfpce8R7Os0-98" value="" style="endArrow=classic;html=1;strokeColor=#000000;fillColor=#009900;exitX=0.5;exitY=1;exitDx=0;exitDy=0;entryX=0.5;entryY=1;entryDx=0;entryDy=0;" edge="1" parent="1" source="pJ0Z15_dWUfpce8R7Os0-94" target="pJ0Z15_dWUfpce8R7Os0-54">
          <mxGeometry width="50" height="50" relative="1" as="geometry">
            <mxPoint x="280" y="490" as="sourcePoint" />
            <mxPoint x="-20" y="690" as="targetPoint" />
            <Array as="points">
              <mxPoint x="280" y="730" />
              <mxPoint x="15" y="730" />
            </Array>
          </mxGeometry>
        </mxCell>
        <mxCell id="pJ0Z15_dWUfpce8R7Os0-101" value="登录状态" style="edgeLabel;html=1;align=center;verticalAlign=middle;resizable=0;points=[];" vertex="1" connectable="0" parent="pJ0Z15_dWUfpce8R7Os0-98">
          <mxGeometry x="-0.1165" y="2" relative="1" as="geometry">
            <mxPoint x="21" y="-2" as="offset" />
          </mxGeometry>
        </mxCell>
      </root>
    </mxGraphModel>
  </diagram>
</mxfile>
